<mxfile host="65bd71144e">
    <diagram id="mV6JEWCJ66KR-k56K3II" name="Circuit">
        <mxGraphModel dx="1929" dy="608" grid="1" gridSize="10" guides="1" tooltips="1" connect="1" arrows="1" fold="1" page="1" pageScale="1" pageWidth="1000" pageHeight="1000" math="0" shadow="0">
            <root>
                <mxCell id="0"/>
                <mxCell id="1" parent="0"/>
                <mxCell id="2" value="num&lt;div&gt;decoder&lt;/div&gt;" style="externalPins=0;recursiveResize=0;shadow=0;dashed=0;align=center;html=1;strokeWidth=1;shape=mxgraph.rtl.abstract.entity;container=1;collapsible=0;kind=sequential;drawPins=0;left=3;right=2;bottom=0;top=0;" parent="1" vertex="1">
                    <mxGeometry x="430" y="208" width="80" height="120" as="geometry"/>
                </mxCell>
                <mxCell id="KVkHhzneAzvIdUAki2H4-28" style="edgeStyle=orthogonalEdgeStyle;html=1;entryX=0;entryY=0.5;entryDx=0;entryDy=0;" parent="1" source="3" target="KVkHhzneAzvIdUAki2H4-27" edge="1">
                    <mxGeometry relative="1" as="geometry"/>
                </mxCell>
                <mxCell id="KVkHhzneAzvIdUAki2H4-43" style="edgeStyle=orthogonalEdgeStyle;html=1;" parent="1" source="39" target="KVkHhzneAzvIdUAki2H4-38" edge="1">
                    <mxGeometry relative="1" as="geometry"/>
                </mxCell>
                <mxCell id="3" value="sel&lt;div&gt;decoder&lt;/div&gt;&lt;div&gt;&lt;br&gt;&lt;/div&gt;&lt;div&gt;(active low)&lt;/div&gt;" style="externalPins=0;recursiveResize=0;shadow=0;dashed=0;align=center;html=1;strokeWidth=1;shape=mxgraph.rtl.abstract.entity;container=1;collapsible=0;kind=sequential;drawPins=0;left=3;right=2;bottom=0;top=0;" parent="1" vertex="1">
                    <mxGeometry x="-190" y="500" width="80" height="120" as="geometry"/>
                </mxCell>
                <mxCell id="4" value="num 4&#39;b" style="externalPins=0;recursiveResize=0;shadow=0;dashed=0;align=center;html=1;strokeWidth=1;shape=mxgraph.rtl.abstract.entity;container=1;collapsible=0;kind=input;drawPins=0;left=0;right=1;bottom=0;top=0;" parent="1" vertex="1">
                    <mxGeometry x="-320" y="208" width="90" height="40" as="geometry"/>
                </mxCell>
                <mxCell id="13" value="sel 3&#39;b" style="externalPins=0;recursiveResize=0;shadow=0;dashed=0;align=center;html=1;strokeWidth=1;shape=mxgraph.rtl.abstract.entity;container=1;collapsible=0;kind=input;drawPins=0;left=0;right=1;bottom=0;top=0;" parent="1" vertex="1">
                    <mxGeometry x="-320" y="540" width="90" height="40" as="geometry"/>
                </mxCell>
                <mxCell id="14" value="write 1&#39;b" style="externalPins=0;recursiveResize=0;shadow=0;dashed=0;align=center;html=1;strokeWidth=1;shape=mxgraph.rtl.abstract.entity;container=1;collapsible=0;kind=input;drawPins=0;left=0;right=1;bottom=0;top=0;" parent="1" vertex="1">
                    <mxGeometry x="-321" y="261" width="90" height="40" as="geometry"/>
                </mxCell>
                <mxCell id="17" value="clk" style="externalPins=0;recursiveResize=0;shadow=0;dashed=0;align=center;html=1;strokeWidth=1;shape=mxgraph.rtl.abstract.entity;container=1;collapsible=0;kind=input;drawPins=0;left=0;right=1;bottom=0;top=0;" parent="1" vertex="1">
                    <mxGeometry x="-320" y="160" width="90" height="40" as="geometry"/>
                </mxCell>
                <mxCell id="18" value="reset 1&#39;b" style="externalPins=0;recursiveResize=0;shadow=0;dashed=0;align=center;html=1;strokeWidth=1;shape=mxgraph.rtl.abstract.entity;container=1;collapsible=0;kind=input;drawPins=0;left=0;right=1;bottom=0;top=0;" parent="1" vertex="1">
                    <mxGeometry x="-320" y="340" width="90" height="40" as="geometry"/>
                </mxCell>
                <UserObject label="&lt;div&gt;8&lt;/div&gt;D - Flip Flops" link="data:page/id,B0gr_-n1PJUmQjPBUHlx" id="20">
                    <mxCell style="externalPins=0;recursiveResize=0;shadow=0;dashed=0;align=center;html=1;strokeWidth=1;shape=mxgraph.rtl.abstract.entity;container=1;collapsible=0;kind=sequential;drawPins=0;left=3;right=2;bottom=0;top=0;" parent="1" vertex="1">
                        <mxGeometry x="120" y="210" width="80" height="120" as="geometry"/>
                    </mxCell>
                </UserObject>
                <mxCell id="S6z8eLisyDbPlA53Ll8W-21" style="edgeStyle=elbowEdgeStyle;html=1;exitX=0;exitY=0;exitDx=90;exitDy=20;exitPerimeter=0;entryX=0;entryY=0;entryDx=0;entryDy=30;entryPerimeter=0;" parent="1" source="4" target="20" edge="1">
                    <mxGeometry relative="1" as="geometry">
                        <Array as="points">
                            <mxPoint x="-130" y="220"/>
                        </Array>
                    </mxGeometry>
                </mxCell>
                <mxCell id="KVkHhzneAzvIdUAki2H4-21" style="edgeStyle=orthogonalEdgeStyle;html=1;exitX=0;exitY=0;exitDx=90;exitDy=20;exitPerimeter=0;entryX=0.488;entryY=-0.005;entryDx=0;entryDy=0;entryPerimeter=0;" parent="1" source="17" target="20" edge="1">
                    <mxGeometry relative="1" as="geometry"/>
                </mxCell>
                <mxCell id="KVkHhzneAzvIdUAki2H4-31" value="" style="group" parent="1" vertex="1" connectable="0">
                    <mxGeometry x="-130" y="290" width="60" height="50" as="geometry"/>
                </mxCell>
                <mxCell id="KVkHhzneAzvIdUAki2H4-27" value="" style="triangle;whiteSpace=wrap;html=1;" parent="KVkHhzneAzvIdUAki2H4-31" vertex="1">
                    <mxGeometry width="50" height="50" as="geometry"/>
                </mxCell>
                <mxCell id="KVkHhzneAzvIdUAki2H4-30" value="" style="ellipse;whiteSpace=wrap;html=1;aspect=fixed;" parent="KVkHhzneAzvIdUAki2H4-31" vertex="1">
                    <mxGeometry x="50" y="20" width="10" height="10" as="geometry"/>
                </mxCell>
                <mxCell id="KVkHhzneAzvIdUAki2H4-38" value="&lt;div&gt;8 -&amp;nbsp;&lt;span style=&quot;background-color: transparent;&quot;&gt;Seven&lt;/span&gt;&lt;/div&gt;&lt;div&gt;Segment&lt;/div&gt;Displays&lt;div&gt;&lt;font color=&quot;#000000&quot;&gt;&lt;br&gt;&lt;/font&gt;&lt;div&gt;(active low)&lt;/div&gt;&lt;/div&gt;" style="externalPins=0;recursiveResize=0;shadow=0;dashed=0;align=center;html=1;strokeWidth=1;shape=mxgraph.rtl.abstract.entity;container=1;collapsible=0;kind=sequential;drawPins=0;left=3;right=2;bottom=0;top=0;" parent="1" vertex="1">
                    <mxGeometry x="380" y="495" width="80" height="120" as="geometry"/>
                </mxCell>
                <mxCell id="KVkHhzneAzvIdUAki2H4-41" style="edgeStyle=orthogonalEdgeStyle;html=1;entryX=0.548;entryY=0.004;entryDx=0;entryDy=0;entryPerimeter=0;" parent="1" source="2" target="KVkHhzneAzvIdUAki2H4-38" edge="1">
                    <mxGeometry relative="1" as="geometry"/>
                </mxCell>
                <mxCell id="KVkHhzneAzvIdUAki2H4-42" value="decoded num" style="edgeLabel;html=1;align=center;verticalAlign=middle;resizable=0;points=[];" parent="KVkHhzneAzvIdUAki2H4-41" vertex="1" connectable="0">
                    <mxGeometry x="0.0223" y="-1" relative="1" as="geometry">
                        <mxPoint as="offset"/>
                    </mxGeometry>
                </mxCell>
                <mxCell id="KVkHhzneAzvIdUAki2H4-46" style="edgeStyle=orthogonalEdgeStyle;html=1;exitX=0;exitY=0;exitDx=90;exitDy=20;exitPerimeter=0;entryX=0;entryY=0;entryDx=0;entryDy=60;entryPerimeter=0;" parent="1" source="13" target="3" edge="1">
                    <mxGeometry relative="1" as="geometry"/>
                </mxCell>
                <mxCell id="KVkHhzneAzvIdUAki2H4-50" style="edgeStyle=orthogonalEdgeStyle;html=1;exitX=0;exitY=0;exitDx=90;exitDy=20;exitPerimeter=0;entryX=0.544;entryY=1.001;entryDx=0;entryDy=0;entryPerimeter=0;" parent="1" source="18" target="20" edge="1">
                    <mxGeometry relative="1" as="geometry"/>
                </mxCell>
                <mxCell id="21" value="" style="shape=or;whiteSpace=wrap;html=1;" vertex="1" parent="1">
                    <mxGeometry x="50" y="270" width="40" height="50" as="geometry"/>
                </mxCell>
                <mxCell id="25" style="edgeStyle=orthogonalEdgeStyle;html=1;exitX=1;exitY=0.5;exitDx=0;exitDy=0;entryX=0;entryY=0.75;entryDx=0;entryDy=0;entryPerimeter=0;" edge="1" parent="1" source="KVkHhzneAzvIdUAki2H4-30" target="21">
                    <mxGeometry relative="1" as="geometry"/>
                </mxCell>
                <mxCell id="27" value="sel [active high]" style="edgeLabel;html=1;align=center;verticalAlign=middle;resizable=0;points=[];" vertex="1" connectable="0" parent="25">
                    <mxGeometry x="-0.4895" y="2" relative="1" as="geometry">
                        <mxPoint x="13" y="-3" as="offset"/>
                    </mxGeometry>
                </mxCell>
                <mxCell id="26" style="edgeStyle=none;html=1;entryX=0;entryY=0.25;entryDx=0;entryDy=0;entryPerimeter=0;" edge="1" parent="1" source="14" target="21">
                    <mxGeometry relative="1" as="geometry"/>
                </mxCell>
                <mxCell id="28" style="edgeStyle=none;html=1;entryX=-0.021;entryY=0.696;entryDx=0;entryDy=0;entryPerimeter=0;" edge="1" parent="1" source="21" target="20">
                    <mxGeometry relative="1" as="geometry"/>
                </mxCell>
                <mxCell id="29" value="8x1&lt;div&gt;mux&lt;/div&gt;" style="externalPins=0;recursiveResize=0;shadow=0;dashed=0;align=center;html=1;strokeWidth=1;shape=mxgraph.rtl.abstract.entity;container=1;collapsible=0;kind=mux;drawPins=0;left=4;right=1;bottom=0;top=0;" vertex="1" parent="1">
                    <mxGeometry x="280" y="220" width="30" height="100" as="geometry"/>
                </mxCell>
                <mxCell id="32" style="edgeStyle=none;html=1;entryX=0.067;entryY=0.509;entryDx=0;entryDy=0;entryPerimeter=0;" edge="1" parent="1" source="20" target="29">
                    <mxGeometry relative="1" as="geometry"/>
                </mxCell>
                <mxCell id="33" value="num" style="edgeLabel;html=1;align=center;verticalAlign=middle;resizable=0;points=[];" vertex="1" connectable="0" parent="32">
                    <mxGeometry x="-0.0369" y="-1" relative="1" as="geometry">
                        <mxPoint as="offset"/>
                    </mxGeometry>
                </mxCell>
                <mxCell id="34" style="edgeStyle=orthogonalEdgeStyle;html=1;exitX=0;exitY=0;exitDx=90;exitDy=20;exitPerimeter=0;entryX=0.561;entryY=0.929;entryDx=0;entryDy=0;entryPerimeter=0;" edge="1" parent="1" source="13" target="29">
                    <mxGeometry relative="1" as="geometry">
                        <Array as="points">
                            <mxPoint x="-210" y="560"/>
                            <mxPoint x="-210" y="440"/>
                            <mxPoint x="297" y="440"/>
                        </Array>
                    </mxGeometry>
                </mxCell>
                <mxCell id="36" value="sel" style="edgeLabel;html=1;align=center;verticalAlign=middle;resizable=0;points=[];" vertex="1" connectable="0" parent="34">
                    <mxGeometry x="0.8802" relative="1" as="geometry">
                        <mxPoint as="offset"/>
                    </mxGeometry>
                </mxCell>
                <mxCell id="37" style="edgeStyle=none;html=1;entryX=0;entryY=0;entryDx=0;entryDy=60;entryPerimeter=0;" edge="1" parent="1" source="29" target="2">
                    <mxGeometry relative="1" as="geometry"/>
                </mxCell>
                <mxCell id="38" value="selected num" style="edgeLabel;html=1;align=center;verticalAlign=middle;resizable=0;points=[];" vertex="1" connectable="0" parent="37">
                    <mxGeometry x="-0.344" y="-1" relative="1" as="geometry">
                        <mxPoint x="11" as="offset"/>
                    </mxGeometry>
                </mxCell>
                <mxCell id="40" value="" style="edgeStyle=orthogonalEdgeStyle;html=1;entryX=0.175;entryY=0.75;entryDx=0;entryDy=0;entryPerimeter=0;" edge="1" parent="1" source="3" target="39">
                    <mxGeometry relative="1" as="geometry">
                        <mxPoint x="-110" y="560" as="sourcePoint"/>
                        <mxPoint x="380" y="560" as="targetPoint"/>
                    </mxGeometry>
                </mxCell>
                <mxCell id="41" value="sel [active low]" style="edgeLabel;html=1;align=center;verticalAlign=middle;resizable=0;points=[];" vertex="1" connectable="0" parent="40">
                    <mxGeometry x="-0.1707" y="-1" relative="1" as="geometry">
                        <mxPoint as="offset"/>
                    </mxGeometry>
                </mxCell>
                <mxCell id="39" value="" style="shape=xor;whiteSpace=wrap;html=1;" vertex="1" parent="1">
                    <mxGeometry x="260" y="530" width="40" height="50" as="geometry"/>
                </mxCell>
                <mxCell id="42" style="edgeStyle=orthogonalEdgeStyle;html=1;exitX=0;exitY=0;exitDx=90;exitDy=20;exitPerimeter=0;entryX=0.175;entryY=0.25;entryDx=0;entryDy=0;entryPerimeter=0;" edge="1" parent="1" source="14" target="39">
                    <mxGeometry relative="1" as="geometry">
                        <Array as="points">
                            <mxPoint x="-180" y="281"/>
                            <mxPoint x="-180" y="470"/>
                            <mxPoint x="120" y="470"/>
                            <mxPoint x="120" y="543"/>
                        </Array>
                    </mxGeometry>
                </mxCell>
                <mxCell id="43" value="write" style="edgeLabel;html=1;align=center;verticalAlign=middle;resizable=0;points=[];" vertex="1" connectable="0" parent="42">
                    <mxGeometry x="0.8276" y="-1" relative="1" as="geometry">
                        <mxPoint as="offset"/>
                    </mxGeometry>
                </mxCell>
            </root>
        </mxGraphModel>
    </diagram>
    <diagram id="B0gr_-n1PJUmQjPBUHlx" name="Flip Flops">
        <mxGraphModel dx="836" dy="547" grid="1" gridSize="10" guides="1" tooltips="1" connect="1" arrows="1" fold="1" page="1" pageScale="1" pageWidth="1000" pageHeight="1000" math="0" shadow="0">
            <root>
                <mxCell id="0"/>
                <mxCell id="1" parent="0"/>
                <mxCell id="Jf6BggblMCW3SHoGojlO-1" value="" style="group" vertex="1" connectable="0" parent="1">
                    <mxGeometry x="290" y="80" width="160" height="300" as="geometry"/>
                </mxCell>
                <mxCell id="Jf6BggblMCW3SHoGojlO-2" value="" style="externalPins=0;recursiveResize=0;shadow=0;dashed=0;align=center;html=1;strokeWidth=1;shape=mxgraph.rtl.abstract.entity;left=,:clk;right=,:np;top=0;bottom=0;drawPins=0;snapToPoint=1;resizable=0;editable=1;" vertex="1" parent="Jf6BggblMCW3SHoGojlO-1">
                    <mxGeometry x="120" width="40" height="60" as="geometry"/>
                </mxCell>
                <mxCell id="Jf6BggblMCW3SHoGojlO-3" value="" style="externalPins=0;recursiveResize=0;shadow=0;dashed=0;align=center;html=1;strokeWidth=1;shape=mxgraph.rtl.abstract.entity;left=,:clk;right=,:np;top=0;bottom=0;drawPins=0;snapToPoint=1;resizable=0;editable=1;" vertex="1" parent="Jf6BggblMCW3SHoGojlO-1">
                    <mxGeometry x="120" y="80" width="40" height="60" as="geometry"/>
                </mxCell>
                <mxCell id="Jf6BggblMCW3SHoGojlO-4" value="" style="externalPins=0;recursiveResize=0;shadow=0;dashed=0;align=center;html=1;strokeWidth=1;shape=mxgraph.rtl.abstract.entity;left=,:clk;right=,:np;top=0;bottom=0;drawPins=0;snapToPoint=1;resizable=0;editable=1;" vertex="1" parent="Jf6BggblMCW3SHoGojlO-1">
                    <mxGeometry x="120" y="160" width="40" height="60" as="geometry"/>
                </mxCell>
                <mxCell id="Jf6BggblMCW3SHoGojlO-5" value="" style="externalPins=0;recursiveResize=0;shadow=0;dashed=0;align=center;html=1;strokeWidth=1;shape=mxgraph.rtl.abstract.entity;left=,:clk;right=,:np;top=0;bottom=0;drawPins=0;snapToPoint=1;resizable=0;editable=1;" vertex="1" parent="Jf6BggblMCW3SHoGojlO-1">
                    <mxGeometry x="120" y="240" width="40" height="60" as="geometry"/>
                </mxCell>
                <mxCell id="Jf6BggblMCW3SHoGojlO-6" value="" style="externalPins=0;recursiveResize=0;shadow=0;dashed=0;align=center;html=1;strokeWidth=1;shape=mxgraph.rtl.abstract.entity;left=,:clk;right=,:np;top=0;bottom=0;drawPins=0;snapToPoint=1;resizable=0;editable=1;" vertex="1" parent="Jf6BggblMCW3SHoGojlO-1">
                    <mxGeometry y="160" width="40" height="60" as="geometry"/>
                </mxCell>
                <mxCell id="Jf6BggblMCW3SHoGojlO-7" value="" style="externalPins=0;recursiveResize=0;shadow=0;dashed=0;align=center;html=1;strokeWidth=1;shape=mxgraph.rtl.abstract.entity;left=,:clk;right=,:np;top=0;bottom=0;drawPins=0;snapToPoint=1;resizable=0;editable=1;" vertex="1" parent="Jf6BggblMCW3SHoGojlO-1">
                    <mxGeometry y="240" width="40" height="60" as="geometry"/>
                </mxCell>
                <mxCell id="Jf6BggblMCW3SHoGojlO-8" value="" style="externalPins=0;recursiveResize=0;shadow=0;dashed=0;align=center;html=1;strokeWidth=1;shape=mxgraph.rtl.abstract.entity;left=,:clk;right=,:np;top=0;bottom=0;drawPins=0;snapToPoint=1;resizable=0;editable=1;" vertex="1" parent="Jf6BggblMCW3SHoGojlO-1">
                    <mxGeometry width="40" height="60" as="geometry"/>
                </mxCell>
                <mxCell id="Jf6BggblMCW3SHoGojlO-9" value="" style="externalPins=0;recursiveResize=0;shadow=0;dashed=0;align=center;html=1;strokeWidth=1;shape=mxgraph.rtl.abstract.entity;left=,:clk;right=,:np;top=0;bottom=0;drawPins=0;snapToPoint=1;resizable=0;editable=1;" vertex="1" parent="Jf6BggblMCW3SHoGojlO-1">
                    <mxGeometry y="80" width="40" height="60" as="geometry"/>
                </mxCell>
            </root>
        </mxGraphModel>
    </diagram>
</mxfile>